<mxfile host="app.diagrams.net" modified="2024-01-14T22:08:53.247Z" agent="Mozilla/5.0 (X11; Ubuntu; Linux x86_64; rv:121.0) Gecko/20100101 Firefox/121.0" etag="eUxV1lQFDzhJHKHrit4k" version="22.1.18" type="device">
  <diagram name="Page-1" id="PRSRMyTCD8omDOyatK32">
    <mxGraphModel dx="794" dy="435" grid="1" gridSize="10" guides="1" tooltips="1" connect="1" arrows="1" fold="1" page="1" pageScale="1" pageWidth="1200" pageHeight="1920" math="0" shadow="0">
      <root>
        <mxCell id="0" />
        <mxCell id="1" parent="0" />
        <mxCell id="4xjg4d6aCpPUscgINkcr-32" value="" style="rounded=0;whiteSpace=wrap;html=1;gradientColor=none;fillColor=#3399FF;opacity=50;" parent="1" vertex="1">
          <mxGeometry x="290" y="360" width="540" height="370" as="geometry" />
        </mxCell>
        <mxCell id="4xjg4d6aCpPUscgINkcr-2" value="Provide assistant" style="ellipse;whiteSpace=wrap;html=1;" parent="1" vertex="1">
          <mxGeometry x="670" y="390" width="140" height="70" as="geometry" />
        </mxCell>
        <mxCell id="4xjg4d6aCpPUscgINkcr-4" value="Choose assistant" style="ellipse;whiteSpace=wrap;html=1;" parent="1" vertex="1">
          <mxGeometry x="610" y="630" width="140" height="70" as="geometry" />
        </mxCell>
        <mxCell id="4xjg4d6aCpPUscgINkcr-5" value="Chat" style="ellipse;whiteSpace=wrap;html=1;" parent="1" vertex="1">
          <mxGeometry x="690" y="465" width="140" height="70" as="geometry" />
        </mxCell>
        <mxCell id="4xjg4d6aCpPUscgINkcr-6" value="Invite new user" style="ellipse;whiteSpace=wrap;html=1;" parent="1" vertex="1">
          <mxGeometry x="460" y="630" width="140" height="70" as="geometry" />
        </mxCell>
        <mxCell id="4xjg4d6aCpPUscgINkcr-7" value="Register" style="ellipse;whiteSpace=wrap;html=1;" parent="1" vertex="1">
          <mxGeometry x="330" y="395" width="140" height="70" as="geometry" />
        </mxCell>
        <mxCell id="4xjg4d6aCpPUscgINkcr-8" value="Choose billing plan" style="ellipse;whiteSpace=wrap;html=1;" parent="1" vertex="1">
          <mxGeometry x="330" y="480" width="140" height="70" as="geometry" />
        </mxCell>
        <mxCell id="4xjg4d6aCpPUscgINkcr-21" style="edgeStyle=orthogonalEdgeStyle;rounded=0;orthogonalLoop=1;jettySize=auto;html=1;exitX=1;exitY=0.3333333333333333;exitDx=0;exitDy=0;exitPerimeter=0;endArrow=none;endFill=0;" parent="1" source="4xjg4d6aCpPUscgINkcr-11" target="4xjg4d6aCpPUscgINkcr-7" edge="1">
          <mxGeometry relative="1" as="geometry">
            <Array as="points">
              <mxPoint x="310" y="470" />
              <mxPoint x="310" y="435" />
            </Array>
          </mxGeometry>
        </mxCell>
        <mxCell id="4xjg4d6aCpPUscgINkcr-22" style="edgeStyle=orthogonalEdgeStyle;rounded=0;orthogonalLoop=1;jettySize=auto;html=1;exitX=1;exitY=0.3333333333333333;exitDx=0;exitDy=0;exitPerimeter=0;entryX=0;entryY=0.5;entryDx=0;entryDy=0;endArrow=none;endFill=0;" parent="1" source="4xjg4d6aCpPUscgINkcr-11" target="4xjg4d6aCpPUscgINkcr-8" edge="1">
          <mxGeometry relative="1" as="geometry">
            <Array as="points">
              <mxPoint x="310" y="470" />
              <mxPoint x="310" y="515" />
            </Array>
          </mxGeometry>
        </mxCell>
        <mxCell id="4xjg4d6aCpPUscgINkcr-11" value="User" style="shape=umlActor;verticalLabelPosition=bottom;verticalAlign=top;html=1;" parent="1" vertex="1">
          <mxGeometry x="250" y="450" width="30" height="60" as="geometry" />
        </mxCell>
        <mxCell id="4xjg4d6aCpPUscgINkcr-18" style="edgeStyle=orthogonalEdgeStyle;rounded=0;orthogonalLoop=1;jettySize=auto;html=1;exitX=0;exitY=0.3333333333333333;exitDx=0;exitDy=0;exitPerimeter=0;entryX=1;entryY=0.5;entryDx=0;entryDy=0;endArrow=none;endFill=0;" parent="1" source="4xjg4d6aCpPUscgINkcr-13" target="4xjg4d6aCpPUscgINkcr-2" edge="1">
          <mxGeometry relative="1" as="geometry" />
        </mxCell>
        <mxCell id="4xjg4d6aCpPUscgINkcr-13" value="OpenAI" style="shape=umlActor;verticalLabelPosition=bottom;verticalAlign=top;html=1;" parent="1" vertex="1">
          <mxGeometry x="880" y="405" width="30" height="60" as="geometry" />
        </mxCell>
        <mxCell id="4xjg4d6aCpPUscgINkcr-23" style="edgeStyle=orthogonalEdgeStyle;rounded=0;orthogonalLoop=1;jettySize=auto;html=1;exitX=0;exitY=0.3333333333333333;exitDx=0;exitDy=0;exitPerimeter=0;entryX=0.5;entryY=1;entryDx=0;entryDy=0;endArrow=none;endFill=0;" parent="1" source="4xjg4d6aCpPUscgINkcr-14" target="4xjg4d6aCpPUscgINkcr-8" edge="1">
          <mxGeometry relative="1" as="geometry">
            <Array as="points">
              <mxPoint x="450" y="790" />
              <mxPoint x="450" y="560" />
              <mxPoint x="390" y="560" />
              <mxPoint x="390" y="550" />
            </Array>
          </mxGeometry>
        </mxCell>
        <mxCell id="4xjg4d6aCpPUscgINkcr-24" style="edgeStyle=orthogonalEdgeStyle;rounded=0;orthogonalLoop=1;jettySize=auto;html=1;exitX=0;exitY=0.3333333333333333;exitDx=0;exitDy=0;exitPerimeter=0;entryX=0.5;entryY=1;entryDx=0;entryDy=0;endArrow=none;endFill=0;" parent="1" source="4xjg4d6aCpPUscgINkcr-14" target="4xjg4d6aCpPUscgINkcr-6" edge="1">
          <mxGeometry relative="1" as="geometry" />
        </mxCell>
        <mxCell id="4xjg4d6aCpPUscgINkcr-26" style="edgeStyle=orthogonalEdgeStyle;rounded=0;orthogonalLoop=1;jettySize=auto;html=1;exitX=1;exitY=0.3333333333333333;exitDx=0;exitDy=0;exitPerimeter=0;entryX=0.5;entryY=1;entryDx=0;entryDy=0;endArrow=none;endFill=0;" parent="1" source="4xjg4d6aCpPUscgINkcr-14" target="4xjg4d6aCpPUscgINkcr-4" edge="1">
          <mxGeometry relative="1" as="geometry" />
        </mxCell>
        <mxCell id="4xjg4d6aCpPUscgINkcr-27" style="edgeStyle=orthogonalEdgeStyle;rounded=0;orthogonalLoop=1;jettySize=auto;html=1;exitX=1;exitY=0.3333333333333333;exitDx=0;exitDy=0;exitPerimeter=0;entryX=0.5;entryY=1;entryDx=0;entryDy=0;endArrow=none;endFill=0;" parent="1" source="4xjg4d6aCpPUscgINkcr-14" target="4xjg4d6aCpPUscgINkcr-5" edge="1">
          <mxGeometry relative="1" as="geometry" />
        </mxCell>
        <mxCell id="4xjg4d6aCpPUscgINkcr-14" value="Client" style="shape=umlActor;verticalLabelPosition=bottom;verticalAlign=top;html=1;" parent="1" vertex="1">
          <mxGeometry x="560" y="770" width="30" height="60" as="geometry" />
        </mxCell>
        <mxCell id="4xjg4d6aCpPUscgINkcr-19" style="edgeStyle=orthogonalEdgeStyle;rounded=0;orthogonalLoop=1;jettySize=auto;html=1;exitX=0;exitY=0.3333333333333333;exitDx=0;exitDy=0;exitPerimeter=0;entryX=1;entryY=0.5;entryDx=0;entryDy=0;endArrow=none;endFill=0;" parent="1" source="4xjg4d6aCpPUscgINkcr-15" target="4xjg4d6aCpPUscgINkcr-5" edge="1">
          <mxGeometry relative="1" as="geometry">
            <Array as="points">
              <mxPoint x="860" y="585" />
              <mxPoint x="860" y="500" />
            </Array>
            <mxPoint x="810" y="505" as="targetPoint" />
          </mxGeometry>
        </mxCell>
        <mxCell id="4xjg4d6aCpPUscgINkcr-15" value="Assistant" style="shape=umlActor;verticalLabelPosition=bottom;verticalAlign=top;html=1;" parent="1" vertex="1">
          <mxGeometry x="880" y="565" width="30" height="60" as="geometry" />
        </mxCell>
        <mxCell id="4xjg4d6aCpPUscgINkcr-31" value="use_cases" style="shape=umlFrame;whiteSpace=wrap;html=1;pointerEvents=0;width=70;height=30;" parent="1" vertex="1">
          <mxGeometry x="200" y="340" width="780" height="530" as="geometry" />
        </mxCell>
        <mxCell id="Bbc6aOjDp-9W5xGy9L4e-8" style="edgeStyle=orthogonalEdgeStyle;rounded=0;orthogonalLoop=1;jettySize=auto;html=1;exitX=1;exitY=0.3333333333333333;exitDx=0;exitDy=0;exitPerimeter=0;entryX=0;entryY=0.5;entryDx=0;entryDy=0;endArrow=none;endFill=0;" parent="1" source="Bbc6aOjDp-9W5xGy9L4e-2" target="Bbc6aOjDp-9W5xGy9L4e-5" edge="1">
          <mxGeometry relative="1" as="geometry" />
        </mxCell>
        <mxCell id="Bbc6aOjDp-9W5xGy9L4e-2" value="&lt;div&gt;Payment&lt;/div&gt;&lt;div&gt;service&lt;br&gt;&lt;/div&gt;" style="shape=umlActor;verticalLabelPosition=bottom;verticalAlign=top;html=1;" parent="1" vertex="1">
          <mxGeometry x="230" y="610" width="30" height="60" as="geometry" />
        </mxCell>
        <mxCell id="Bbc6aOjDp-9W5xGy9L4e-5" value="Confirm payment" style="ellipse;whiteSpace=wrap;html=1;" parent="1" vertex="1">
          <mxGeometry x="300" y="600" width="140" height="70" as="geometry" />
        </mxCell>
      </root>
    </mxGraphModel>
  </diagram>
</mxfile>
